<svg width="131" height="112" viewBox="0 0 131 112" fill="none" xmlns="http://www.w3.org/2000/svg">
<path d="M10.403 24.0139C10.9381 23.2284 11.6865 22.4086 12.3544 21.7225C12.7162 21.3509 13.2388 21.0514 13.8326 21.1134C14.7672 21.211 15.5846 21.7073 16.4724 21.9193C18.4522 22.392 20.2504 21.2285 21.3876 19.7957C21.9998 19.0244 23.255 18.273 24.345 18.4733C25.4187 18.6706 26.6937 18.935 27.699 19.3395C28.5514 19.6825 30.3286 19.9022 31.1159 19.2643C31.4404 19.0015 31.8258 18.816 32.1605 18.5579C32.5081 18.2898 32.7382 17.9168 33.0561 17.6235C33.6873 17.0411 34.0921 16.4081 34.828 15.9447C35.802 15.3314 36.3936 15.3652 37.5101 15.6063C38.4051 15.7996 39.1039 16.2888 39.9994 16.5026C40.7364 16.6786 42.3646 16.1957 42.9606 15.798C43.8423 15.2095 44.5151 14.3337 45.0991 13.4819C45.4303 12.9988 46.7337 12.226 47.3725 12.444C48.0992 12.6922 48.9227 12.8029 49.6261 13.1057C50.0143 13.2728 50.4955 13.3118 50.8618 13.4897C51.3272 13.7157 52.2102 13.2886 52.495 13.7778" stroke="black" stroke-width="2" stroke-linecap="round"/>
<path d="M13.0803 33.5446C13.6154 32.7592 14.3638 31.9393 15.0317 31.2532C15.3935 30.8816 15.9162 30.5821 16.5099 30.6442C17.4445 30.7418 18.2619 31.2381 19.1497 31.45C21.1295 31.9227 22.9277 30.7592 24.0649 29.3265C24.6771 28.5552 25.9324 27.8037 27.0223 28.004C28.096 28.2013 29.371 28.4657 30.3763 28.8702C31.2287 29.2132 33.0059 29.433 33.7933 28.7951C34.1177 28.5322 34.5031 28.3468 34.8378 28.0886C35.1854 27.8206 35.4155 27.4476 35.7335 27.1542C36.3646 26.5718 36.7694 25.9388 37.5053 25.4754C38.4793 24.8622 39.0709 24.8959 40.1874 25.137C41.0824 25.3303 41.7812 25.8196 42.6767 26.0334C43.4137 26.2093 45.0419 25.7264 45.6379 25.3287C46.5196 24.7403 47.1924 23.8645 47.7764 23.0126C48.1076 22.5296 49.411 21.7567 50.0498 21.9748C50.7765 22.2229 51.6 22.3337 52.3034 22.6365C52.6916 22.8036 53.1728 22.8425 53.5391 23.0204C54.0045 23.2465 54.8876 22.8193 55.1723 23.3086" stroke="black" stroke-width="2" stroke-linecap="round"/>
<path d="M15.2227 41.1688C15.7578 40.3833 16.5063 39.5635 17.1742 38.8774C17.5359 38.5058 18.0586 38.2063 18.6524 38.2683C19.587 38.3659 20.4044 38.8622 21.2921 39.0742C23.2719 39.5469 25.0702 38.3834 26.2073 36.9506C26.8195 36.1793 28.0748 35.4279 29.1647 35.6282C30.2385 35.8255 31.5134 36.0899 32.5187 36.4944C33.3712 36.8374 35.1483 37.0571 35.9357 36.4192C36.2602 36.1564 36.6456 35.9709 36.9803 35.7128C37.3279 35.4447 37.558 35.0718 37.8759 34.7784C38.5071 34.196 38.9119 33.563 39.6478 33.0996C40.6217 32.4863 41.2134 32.5201 42.3299 32.7612C43.2249 32.9545 43.9236 33.4437 44.8192 33.6575C45.5561 33.8335 47.1844 33.3506 47.7803 32.9529C48.6621 32.3644 49.3348 31.4886 49.9189 30.6368C50.2501 30.1537 51.5534 29.3809 52.1922 29.599C52.919 29.8471 53.7424 29.9579 54.4458 30.2606C54.834 30.4277 55.3153 30.4667 55.6815 30.6446C56.147 30.8706 57.03 30.4435 57.3148 30.9327" stroke="black" stroke-width="2" stroke-linecap="round"/>
<path d="M2.74333 16.835C3.55932 19.7394 3.70682 22.7718 4.51838 25.6604C5.14482 27.8901 5.50743 30.1837 6.13598 32.4209C7.31051 36.6014 8.35663 40.8264 9.52679 44.9913C10.0209 46.7499 10.3688 48.643 11.1591 50.2999C11.3221 50.6415 11.5444 50.9517 11.7102 51.2862C11.8437 51.5556 12.654 51.3772 12.9405 51.3749C13.9547 51.3671 15.0731 50.9046 16.0492 50.6552C20.19 49.597 24.3308 48.5388 28.4715 47.4807C30.7481 46.8989 33.1012 46.7007 35.3762 46.1193C37.9402 45.4641 40.5809 45.1924 43.15 44.5359C45.8101 43.8561 48.285 42.6861 50.9547 42.0039C52.5954 41.5846 54.2361 41.1653 55.8768 40.7461C57.0837 40.4376 58.2314 40.01 59.4347 39.7025C59.8344 39.6003 60.4153 39.4429 60.7354 39.2059C61.2954 38.7911 62.3198 38.4277 63.0037 38.253C63.3275 38.1702 63.7591 38.1315 64.0553 37.9842C64.5128 37.7568 64.1054 36.3165 64.0741 35.934C64.0075 35.1193 63.7365 34.3423 63.515 33.5537C63.2152 32.4868 63.1687 31.3674 62.8817 30.2966C62.1229 27.466 61.5572 24.5794 60.767 21.767C60.3005 20.1066 60.0887 18.3877 59.494 16.7623C58.8017 14.8702 57.7603 13.0711 57.214 11.1266C56.8077 9.68025 56.4013 8.23387 55.9949 6.78749C55.8482 6.26512 55.7014 5.74275 55.5547 5.22038C55.3884 4.62862 54.9361 3.74442 55.0412 3.14196C55.1802 2.34503 53.4169 2.96106 52.9517 3.00407C51.4575 3.14223 49.9323 3.28975 48.4586 3.53267C43.4891 4.35181 38.7614 6.18332 33.8288 7.15186C29.4467 8.01229 25.073 8.9788 20.7438 10.0851C18.8499 10.5691 16.956 11.0531 15.0621 11.5371C13.86 11.8443 12.3862 12.4481 11.1418 12.4045C9.5181 12.3477 7.96542 13.396 6.42148 13.8795C5.04986 14.3091 3.60978 14.598 2.21499 14.9545" stroke="black" stroke-width="4" stroke-linecap="round"/>
<path d="M79.2218 40.9193C80.097 40.4942 81.175 40.1411 82.1131 39.8654C82.6212 39.7161 83.2309 39.706 83.7126 40.0428C84.4708 40.5731 84.9185 41.3927 85.5762 41.9995C87.0429 43.353 89.2102 43.2029 90.9462 42.5044C91.8807 42.1283 93.3618 42.0761 94.2007 42.7693C95.0271 43.4522 95.9926 44.2892 96.6512 45.1189C97.2096 45.8224 98.6335 46.8602 99.6498 46.6832C100.069 46.6103 100.5 46.6335 100.925 46.5695C101.366 46.5031 101.761 46.2898 102.19 46.1874C103.042 45.984 103.725 45.6288 104.605 45.5784C105.77 45.5118 106.265 45.8231 107.105 46.5643C107.779 47.1585 108.127 47.9154 108.791 48.5277C109.337 49.0315 111 49.3897 111.725 49.3294C112.797 49.2403 113.839 48.8027 114.791 48.3434C115.331 48.083 116.865 48.0353 117.304 48.5287C117.803 49.0902 118.458 49.5788 118.909 50.1764C119.157 50.5062 119.554 50.7695 119.778 51.0982C120.062 51.5159 121.051 51.567 121.041 52.1265" stroke="black" stroke-width="2" stroke-linecap="round"/>
<path d="M76.5442 50.4502C77.4194 50.0251 78.4974 49.672 79.4355 49.3963C79.9436 49.247 80.5533 49.2369 81.035 49.5737C81.7932 50.1039 82.2409 50.9235 82.8985 51.5304C84.3653 52.8839 86.5326 52.7337 88.2686 52.0352C89.2031 51.6592 90.6842 51.607 91.523 52.3002C92.3495 52.9831 93.315 53.82 93.9736 54.6498C94.532 55.3533 95.9559 56.391 96.9722 56.2141C97.391 56.1412 97.822 56.1644 98.2471 56.1004C98.6887 56.034 99.0835 55.8207 99.5127 55.7183C100.365 55.5149 101.047 55.1597 101.927 55.1093C103.092 55.0426 103.587 55.354 104.427 56.0952C105.101 56.6894 105.45 57.4463 106.113 58.0585C106.659 58.5623 108.323 58.9206 109.047 58.8603C110.119 58.7712 111.161 58.3336 112.113 57.8743C112.654 57.6139 114.187 57.5661 114.626 58.0596C115.126 58.621 115.781 59.1097 116.231 59.7073C116.48 60.0371 116.876 60.3003 117.1 60.6291C117.385 61.0468 118.373 61.0979 118.363 61.6574" stroke="black" stroke-width="2" stroke-linecap="round"/>
<path d="M74.4014 58.0743C75.2766 57.6492 76.3546 57.2961 77.2927 57.0204C77.8008 56.8711 78.4105 56.861 78.8922 57.1979C79.6504 57.7281 80.0981 58.5477 80.7558 59.1546C82.2225 60.508 84.3899 60.3579 86.1258 59.6594C87.0603 59.2834 88.5414 59.2311 89.3803 59.9243C90.2067 60.6073 91.1723 61.4442 91.8308 62.2739C92.3892 62.9774 93.8131 64.0152 94.8294 63.8382C95.2482 63.7653 95.6792 63.7885 96.1044 63.7245C96.5459 63.6581 96.9408 63.4449 97.3699 63.3424C98.2218 63.139 98.9043 62.7839 99.7845 62.7335C100.95 62.6668 101.444 62.9782 102.285 63.7194C102.958 64.3136 103.307 65.0705 103.971 65.6827C104.517 66.1865 106.18 66.5447 106.904 66.4845C107.977 66.3953 109.018 65.9577 109.971 65.4985C110.511 65.2381 112.045 65.1903 112.484 65.6838C112.983 66.2452 113.638 66.7338 114.088 67.3314C114.337 67.6612 114.733 67.9245 114.957 68.2532C115.242 68.6709 116.23 68.7221 116.221 69.2816" stroke="black" stroke-width="2" stroke-linecap="round"/>
<path d="M76.3519 31.0498C75.5359 33.9542 74.0739 36.6507 73.2623 39.5393C72.6359 41.769 71.7475 43.9282 71.1189 46.1654C69.9444 50.3459 68.6354 54.5037 67.4652 58.6687C66.9712 60.4272 66.28 62.2326 66.0958 64.0444C66.0578 64.4179 66.0877 64.7926 66.0559 65.1614C66.0304 65.4583 66.8256 65.6902 67.0749 65.8249C67.9573 66.3017 69.1683 66.4345 70.1445 66.684C74.2852 67.7421 78.426 68.8003 82.5668 69.8585C84.8433 70.4402 86.9851 71.3907 89.2601 71.972C91.8241 72.6273 94.2535 73.6512 96.8225 74.3077C99.4826 74.9875 102.239 75.1545 104.909 75.8367C106.55 76.256 108.19 76.6753 109.831 77.0946C111.038 77.403 112.256 77.5799 113.459 77.8874C113.859 77.9895 114.445 78.1302 114.846 78.0776C115.549 77.9854 116.626 78.1592 117.31 78.334C117.634 78.4167 118.028 78.589 118.362 78.6027C118.877 78.6239 119.28 77.1823 119.453 76.8362C119.822 76.0988 119.995 75.2967 120.217 74.5081C120.516 73.4412 121.063 72.4496 121.376 71.3854C122.203 68.5722 123.226 65.8025 124.016 62.9902C124.483 61.3297 125.2 59.7401 125.538 58.0489C125.93 56.0802 125.971 54.0255 126.518 52.0811C126.924 50.6347 127.33 49.1883 127.737 47.7419C127.884 47.2195 128.03 46.6972 128.177 46.1748C128.343 45.583 128.415 44.6016 128.822 44.13C129.36 43.5061 127.51 43.1987 127.085 43.0142C125.718 42.4213 124.32 41.8218 122.916 41.3294C118.183 39.669 113.129 39.0007 108.349 37.4873C104.103 36.1428 99.8087 34.8942 95.4795 33.7879C93.5857 33.3039 91.6918 32.82 89.7979 32.336C88.5957 32.0288 87.0028 31.849 85.9479 31.2178C84.5716 30.3943 82.6774 30.5617 81.0868 30.2442C79.6737 29.9622 78.2751 29.5257 76.8803 29.1693" stroke="black" stroke-width="4" stroke-linecap="round"/>
<path d="M13.0045 83.2774C13.3885 82.4152 13.9763 81.4839 14.5091 80.6976C14.7977 80.2717 15.2579 79.8902 15.854 79.853C16.7921 79.7944 17.6875 80.1477 18.6003 80.2094C20.6361 80.3471 22.1952 78.9034 23.0543 77.3042C23.5167 76.4432 24.6161 75.4952 25.7259 75.512C26.8193 75.5285 28.123 75.5777 29.1867 75.8096C30.0886 76.0062 31.8788 75.9283 32.5381 75.1697C32.8098 74.8571 33.1555 74.6106 33.4381 74.301C33.7316 73.9794 33.8904 73.574 34.15 73.2325C34.6656 72.5544 34.949 71.864 35.5893 71.2857C36.4368 70.5205 37.0256 70.4557 38.169 70.5083C39.0857 70.5504 39.8629 70.9165 40.7837 70.9788C41.5415 71.03 43.0571 70.2848 43.5716 69.7944C44.3328 69.0689 44.8359 68.095 45.256 67.1593C45.4942 66.6287 46.637 65.6518 47.3058 65.7608C48.0667 65.8848 48.8978 65.8575 49.6457 66.0392C50.0584 66.1394 50.5394 66.0981 50.9325 66.2126C51.432 66.3582 52.2239 65.7913 52.5934 66.2259" stroke="black" stroke-width="2" stroke-linecap="round"/>
<path d="M17.3769 92.2197C17.7608 91.3575 18.3486 90.4262 18.8815 89.6399C19.1701 89.214 19.6303 88.8325 20.2263 88.7953C21.1645 88.7366 22.0598 89.09 22.9727 89.1517C25.0085 89.2893 26.5675 87.8457 27.4266 86.2464C27.889 85.3855 28.9884 84.4375 30.0982 84.4543C31.1916 84.4708 32.4953 84.52 33.559 84.7519C34.4609 84.9485 36.2511 84.8706 36.9104 84.112C37.1821 83.7994 37.5279 83.5529 37.8105 83.2433C38.104 82.9217 38.2627 82.5163 38.5224 82.1747C39.0379 81.4966 39.3213 80.8062 39.9616 80.228C40.8091 79.4627 41.3979 79.398 42.5413 79.4505C43.458 79.4927 44.2352 79.8588 45.156 79.921C45.9139 79.9722 47.4295 79.227 47.9439 78.7366C48.7051 78.0111 49.2082 77.0372 49.6283 76.1016C49.8665 75.571 51.0093 74.5941 51.6781 74.703C52.439 74.827 53.2701 74.7998 54.018 74.9814C54.4307 75.0817 54.9117 75.0404 55.3048 75.1549C55.8044 75.3004 56.5962 74.7335 56.9657 75.1682" stroke="black" stroke-width="2" stroke-linecap="round"/>
<path d="M20.8745 99.3737C21.2584 98.5116 21.8462 97.5802 22.3791 96.7939C22.6677 96.3681 23.1279 95.9866 23.7239 95.9493C24.6621 95.8907 25.5575 96.2441 26.4703 96.3058C28.5061 96.4434 30.0652 94.9998 30.9242 93.4005C31.3867 92.5395 32.486 91.5916 33.5959 91.6083C34.6892 91.6248 35.9929 91.674 37.0566 91.9059C37.9586 92.1025 39.7487 92.0246 40.408 91.266C40.6797 90.9534 41.0255 90.707 41.3081 90.3973C41.6016 90.0757 41.7603 89.6703 42.02 89.3288C42.5355 88.6507 42.8189 87.9603 43.4593 87.382C44.3067 86.6168 44.8956 86.552 46.039 86.6046C46.9556 86.6467 47.7328 87.0128 48.6537 87.0751C49.4115 87.1263 50.9271 86.3811 51.4416 85.8907C52.2027 85.1652 52.7058 84.1913 53.1259 83.2556C53.3641 82.7251 54.507 81.7481 55.1758 81.8571C55.9366 81.9811 56.7677 81.9538 57.5156 82.1355C57.9283 82.2357 58.4093 82.1944 58.8024 82.309C59.302 82.4545 60.0938 81.8876 60.4633 82.3222" stroke="black" stroke-width="2" stroke-linecap="round"/>
<path d="M4.15397 77.4761C5.48638 80.2012 6.18377 83.1631 7.50894 85.8734C8.53184 87.9655 9.30654 90.1642 10.3329 92.2633C12.2507 96.1858 14.0502 100.173 15.9609 104.081C16.7677 105.731 17.455 107.538 18.535 109.039C18.7577 109.348 19.0331 109.617 19.2573 109.919C19.4378 110.162 20.2034 109.852 20.4851 109.803C21.4825 109.627 22.4996 108.986 23.4155 108.579C27.3007 106.851 31.1859 105.123 35.0711 103.395C37.2071 102.445 39.4884 101.86 41.623 100.911C44.0287 99.8413 46.5799 99.1363 48.9904 98.0643C51.4863 96.9543 53.7107 95.3923 56.2155 94.2783C57.755 93.5937 59.2944 92.909 60.8339 92.2244C61.9663 91.7208 63.0186 91.1096 64.1476 90.6075C64.5227 90.4407 65.0661 90.1894 65.3381 89.903C65.8142 89.4017 66.7568 88.8743 67.3985 88.5889C67.7024 88.4537 68.1203 88.3441 68.3852 88.1501C68.7944 87.8503 68.1309 86.4994 68.0305 86.1279C67.8165 85.3366 67.4082 84.6163 67.0464 83.8764C66.5569 82.8753 66.3074 81.7806 65.8297 80.7736C64.567 78.1117 63.4844 75.3626 62.1942 72.7238C61.4324 71.1658 60.9109 69.5082 60.0293 68.006C59.003 66.2573 57.6498 64.6579 56.7578 62.8335C56.0942 61.4764 55.4307 60.1193 54.7672 58.7622C54.5275 58.272 54.2879 57.7819 54.0482 57.2918C53.7768 56.7365 53.1703 55.9407 53.1641 55.33C53.1559 54.5221 51.5316 55.4208 51.0813 55.5402C49.6349 55.9237 48.1598 56.3216 46.7527 56.8049C42.0078 58.4346 37.6855 61.0212 33.0041 62.792C28.8452 64.365 24.714 66.0412 20.652 67.8477C18.875 68.6379 17.098 69.4282 15.321 70.2185C14.193 70.7201 12.8516 71.5589 11.6181 71.7221C10.0088 71.935 8.67056 73.2245 7.23812 73.9564C5.96556 74.6066 4.59996 75.1296 3.29126 75.7116" stroke="black" stroke-width="4" stroke-linecap="round"/>
</svg>
