<svg version="1.1" id="Layer_1" xmlns="http://www.w3.org/2000/svg" xmlns:xlink="http://www.w3.org/1999/xlink" x="0px" y="-100px"
	 width="100%" viewBox="20 50 640 460" enable-background="new 20 50 640 460" xml:space="preserve">
<path fill="#000000" opacity="1.000000" stroke="none" 
	d="
M444.414917,471.519958 
	C411.853394,488.016083 377.527100,495.391968 341.634430,492.969910 
	C288.465332,489.382019 243.466553,467.670227 207.339371,428.313660 
	C199.139603,419.380951 189.710938,412.172485 179.997086,405.092102 
	C148.667145,382.255768 125.261185,352.799164 107.802589,318.312622 
	C100.596542,304.078278 94.055199,289.421936 84.038635,276.738342 
	C79.177925,270.583435 73.321548,265.879822 66.410233,262.301270 
	C56.459721,257.149017 54.371609,247.648804 61.694412,239.240173 
	C70.998070,228.556931 83.259476,223.306671 97.105606,221.705688 
	C123.061378,218.704514 145.585663,227.241486 166.013153,242.609314 
	C170.423981,245.927628 174.873398,249.172165 180.843567,248.962341 
	C183.390320,248.872818 185.140762,248.242508 186.164886,245.513458 
	C199.346176,210.388443 224.846939,186.268295 256.356903,167.713913 
	C272.075195,158.458328 288.938446,151.790009 306.598511,147.168243 
	C312.292206,145.678177 312.282990,145.643021 309.759674,140.304871 
	C295.238251,109.584068 310.849152,75.839928 343.019623,68.410927 
	C378.453613,60.228287 409.980896,90.427185 403.617767,126.295364 
	C402.471802,132.754974 399.952423,138.673096 397.620422,144.685715 
	C399.493286,146.987946 402.172241,146.966660 404.487030,147.593201 
	C431.353394,154.865021 456.270691,166.270645 477.714081,184.128998 
	C507.533539,208.962997 527.816345,239.957733 535.855347,278.376556 
	C537.612244,286.772552 537.339783,295.262909 537.346924,303.753113 
	C537.351624,309.306824 538.819031,310.482941 544.353699,309.656982 
	C563.265381,306.834747 576.571777,283.928802 569.719116,266.059631 
	C568.409668,262.644989 566.377380,259.954773 563.056213,258.307953 
	C561.862610,257.716095 560.697388,257.065369 559.532593,256.417480 
	C552.649658,252.589020 549.807312,246.630569 551.880127,240.394409 
	C553.891479,234.342926 560.273438,230.769852 567.664307,231.916992 
	C576.974426,233.362045 585.827026,236.350388 593.739624,241.510025 
	C619.702332,258.439789 629.834229,283.277954 625.601624,312.970673 
	C618.882324,360.107880 589.211060,388.350708 545.785950,403.817993 
	C537.445312,406.788818 528.783203,408.619110 519.834900,408.265869 
	C517.243896,408.163544 515.971191,409.601410 514.651489,411.441711 
	C496.241425,437.112854 472.784210,456.905884 444.414917,471.519958 
M158.047485,265.586639 
	C154.177505,262.979401 150.315872,260.359680 146.436050,257.767151 
	C131.140259,247.546402 114.260323,243.596893 96.054733,245.421677 
	C92.257477,245.802277 88.310326,246.478394 85.039116,248.720978 
	C85.441231,250.196060 86.404823,250.588928 87.275772,251.029556 
	C95.177826,255.027222 101.418823,260.915222 106.762512,267.887665 
	C115.238106,278.946686 121.020279,291.557983 127.434456,303.787109 
	C138.322144,324.545258 151.131302,343.898376 166.945953,361.294403 
	C183.656982,379.676453 203.673096,393.548401 225.173340,405.564636 
	C227.335266,406.772919 230.182236,407.408936 231.052231,410.164978 
	C229.908463,411.795868 227.823059,410.551117 226.790985,412.397919 
	C228.716660,416.661499 232.607300,419.350983 235.978912,422.454834 
	C275.391663,458.737793 322.142609,473.498962 374.908478,467.369598 
	C426.429108,461.384827 467.494568,436.272919 497.705872,394.115234 
	C502.508331,387.413727 508.069031,385.020538 515.554199,384.717865 
	C540.790161,383.697693 561.987488,373.777954 579.033264,355.238190 
	C594.717957,338.178833 604.353638,318.637878 602.698914,294.711914 
	C602.186951,287.309418 598.641785,278.998383 594.465271,276.447662 
	C594.465271,278.051575 594.386230,279.537079 594.477722,281.012024 
	C595.194275,292.559113 591.616821,302.768738 584.318726,311.541016 
	C570.505920,328.143951 552.610046,335.022461 531.162415,333.396271 
	C520.399231,332.580231 514.471497,325.860840 516.878418,315.370911 
	C518.850098,306.777802 518.946899,298.217896 518.649963,289.564178 
	C518.359497,281.100586 515.617493,271.476013 512.566956,267.729797 
	C512.122437,295.392273 500.673157,317.312042 477.855865,332.848389 
	C458.471832,346.046967 437.340027,347.666779 415.342377,340.420258 
	C411.091553,339.019928 407.492279,336.438202 406.094635,331.954926 
	C404.929474,328.217346 405.724731,324.609222 408.703979,321.862152 
	C412.490967,318.370361 416.771454,319.451599 420.914368,321.042847 
	C437.075989,327.250214 452.349152,324.972321 466.716370,315.960388 
	C493.635712,299.075043 502.898651,257.950012 485.966736,229.848022 
	C473.518921,209.188309 454.902985,195.235718 433.791107,184.579697 
	C403.580658,169.331268 371.368134,164.173737 337.768097,167.109894 
	C298.498474,170.541458 264.237000,185.148422 236.522339,213.535202 
	C216.977936,233.553589 210.592789,257.329193 219.402237,284.258362 
	C226.623795,306.333588 241.421478,320.171387 264.904816,324.047913 
	C274.028351,325.553955 282.332581,323.080688 290.781342,320.390686 
	C299.005402,317.772186 304.854462,323.098602 303.233795,331.504181 
	C302.466675,335.482849 299.588928,337.694641 296.134857,339.304230 
	C279.634369,346.993378 262.720337,346.877472 246.111603,340.488434 
	C219.143127,330.114288 205.053558,308.854492 198.789978,281.626007 
	C197.650696,276.673401 197.189285,271.564850 196.350937,266.111908 
	C190.867813,269.841278 185.387863,272.449127 178.957642,272.263916 
	C171.603592,272.052032 164.938828,269.671417 158.047485,265.586639 
M338.715942,102.229340 
	C337.492859,103.347115 336.450897,104.864883 335.015900,105.514603 
	C328.173462,108.612587 327.886902,114.775032 328.600891,120.600853 
	C330.133331,133.104065 340.147736,141.264954 354.076202,142.278351 
	C364.816772,143.059799 376.069183,134.983032 379.364899,124.126656 
	C382.571259,113.564583 380.010376,106.963425 370.557434,101.366379 
	C369.413391,100.688988 368.341370,99.890167 367.199341,99.209106 
	C359.060303,94.355499 346.050507,95.509422 338.715942,102.229340 
z"/>
<path fill="#000000" opacity="1.000000" stroke="none" 
	d="
M117.144798,121.099144 
	C118.377869,127.247322 121.422295,130.814438 127.593025,131.884216 
	C131.450226,132.552917 133.233505,135.714294 133.326202,139.659348 
	C133.424576,143.846222 131.446533,147.190384 127.572685,148.012024 
	C121.654388,149.267258 118.483223,152.432495 116.664207,158.084824 
	C115.359634,162.138550 111.650681,163.516190 107.381805,163.339752 
	C103.349327,163.173096 100.785614,161.157867 99.604195,157.471039 
	C98.077072,152.705353 95.773743,149.386566 90.123291,148.687927 
	C85.675140,148.137955 83.421257,144.560944 83.336266,140.042816 
	C83.254524,135.697540 85.356705,132.604584 89.597450,131.536423 
	C94.249893,130.364578 97.104118,127.842316 98.333847,123.078705 
	C99.334770,119.201439 101.631485,116.176811 106.082886,115.601830 
	C110.832527,114.988342 114.643715,116.295639 117.144798,121.099144 
z"/>
<path fill="#000000" opacity="1.000000" stroke="none" 
	d="
M369.955048,233.012360 
	C380.735413,211.446548 398.200317,199.442551 421.169464,194.951355 
	C423.427582,194.509827 425.822296,194.604004 428.144897,194.688766 
	C433.106018,194.869781 436.382172,197.702042 437.259735,202.354996 
	C438.214813,207.419052 436.364380,211.481522 431.796417,213.455261 
	C429.539032,214.430618 427.015045,214.796219 424.604095,215.407700 
	C404.976410,220.385742 390.226532,231.106201 385.168610,251.537079 
	C381.335999,267.018463 383.548370,281.958954 393.564880,295.028168 
	C398.337372,301.255188 398.846619,304.202209 395.216949,307.598389 
	C391.124176,311.427795 385.092987,311.358002 380.276764,307.073944 
	C372.974213,300.578308 368.577209,292.207520 365.672882,283.021912 
	C363.703705,276.794006 363.110535,270.309723 362.885437,263.820862 
	C362.592224,255.367783 361.696625,254.095459 355.317780,254.126984 
	C347.981537,254.163193 346.332092,255.867981 346.420654,264.318298 
	C346.545868,276.268402 344.058594,287.471222 337.452850,297.542450 
	C334.314789,302.326813 330.412323,306.462769 325.214478,309.065430 
	C320.750977,311.300446 316.269073,310.337219 313.469177,306.845581 
	C310.265259,302.850159 312.010040,299.412628 314.644623,296.045929 
	C337.153687,267.281616 325.555328,229.117966 290.694733,217.354019 
	C287.073181,216.131927 283.301208,215.362228 279.651978,214.214340 
	C274.183167,212.494049 271.052734,207.854477 271.886108,202.966431 
	C272.790436,197.662247 276.657257,194.329880 282.607697,194.733414 
	C303.703766,196.164078 320.135590,206.249573 332.864807,222.739075 
	C335.293884,225.885651 337.253662,229.416565 339.222626,232.887772 
	C340.362000,234.896439 341.379303,235.953644 343.908508,234.875122 
	C351.097656,231.809494 358.459045,231.760788 365.853516,234.223236 
	C367.345886,234.720215 368.795349,235.062622 369.955048,233.012360 
z"/>
<path fill="#000000" opacity="1.000000" stroke="none" 
	d="
M412.666199,251.449738 
	C428.378693,242.284363 450.674957,248.908295 454.218506,273.420349 
	C454.716675,276.866547 455.154449,280.367310 455.107758,283.835938 
	C455.031891,289.471954 452.018555,293.291870 447.490417,294.197449 
	C442.068207,295.281860 438.350311,293.498840 435.875946,287.983887 
	C434.072296,283.963776 431.619232,281.428436 426.985107,281.206238 
	C422.074341,280.970825 420.032867,283.998260 418.134064,287.835938 
	C415.520355,293.118439 410.338593,295.467560 405.320129,294.155273 
	C401.027618,293.032776 398.770294,289.257477 398.649292,283.129333 
	C398.400543,270.532745 401.398254,259.361023 412.666199,251.449738 
z"/>
<path fill="#000000" opacity="1.000000" stroke="none" 
	d="
M267.538940,294.171448 
	C259.830872,294.240875 256.919983,291.833801 255.582611,284.688599 
	C253.071716,271.273682 258.831360,257.115051 269.184448,251.252014 
	C287.238159,241.028061 307.853180,252.471939 310.213654,274.152740 
	C310.658051,278.234711 311.909027,282.307220 310.763885,286.519043 
	C309.560242,290.946045 307.179901,293.926971 302.352417,294.453735 
	C297.459015,294.987640 293.874298,293.264191 292.055939,288.533295 
	C290.529358,284.561615 288.323700,281.495148 283.572021,281.286102 
	C278.729004,281.073059 276.396484,284.056396 274.774963,288.006317 
	C273.484833,291.148956 271.104401,293.060394 267.538940,294.171448 
z"/>
<path fill="#000000" opacity="1.000000" stroke="none" 
	d="
M321.211426,320.040527 
	C329.327393,321.237061 336.739075,323.777039 344.528229,324.818878 
	C356.855865,326.467834 368.708771,324.484833 380.535736,321.489746 
	C382.146027,321.081940 383.761261,320.661774 385.398560,320.398773 
	C389.384155,319.758453 392.972015,320.771973 394.678467,324.563873 
	C396.534607,328.688354 395.182922,332.420349 391.485382,335.084137 
	C385.409058,339.461700 378.401764,341.770660 371.189850,343.073853 
	C355.509216,345.907349 340.025391,344.877441 324.994080,339.289124 
	C322.671478,338.425598 320.376343,337.324951 318.314026,335.962372 
	C315.146057,333.869263 312.577271,331.042236 313.195068,326.930389 
	C313.815826,322.798920 316.882660,320.820068 321.211426,320.040527 
z"/>
</svg>